# xmcd
#
# Track frame offsets: 
#        150
#        17403
#        33739
#        48057
#        64916
#        81099
#        101002
#        122596
#        137573
#        157032
#        178588
#        201360
#        223909
#        242250
#
# Disc length: 3432 seconds
#
# Revision: 1
# Processed by: cddbd v1.5.2PL0 Copyright (c) Steve Scherf et al.
# Submitted via: ExactAudioCopy v0.95b3
#
DISCID=bd0d660e
DTITLE=Talib Kweli - The Beautiful Struggle
DYEAR=2004
DGENRE=Hip-Hop
TTITLE0=Going Hard
TTITLE1=Back Up Offa Me
TTITLE2=Broken Glass
TTITLE3=We Know (feat. Faith Evans)
TTITLE4=A Game
TTITLE5=I Try (feat. Mary J. Blige)
TTITLE6=Around My Way (feat. John Legend)
TTITLE7=We Got The Beat (feat. Res)
TTITLE8=Work It Out
TTITLE9=Ghetto Show (feat. Common and Anthony Hamilton)
TTITLE10=Black Girl Pain
TTITLE11=Never Been In Love
TTITLE12=Beautiful Struggle
TTITLE13=Rock On [Bonus Track for Japan]
EXTD=
EXTT0=
EXTT1=
EXTT2=
EXTT3=
EXTT4=
EXTT5=
EXTT6=
EXTT7=
EXTT8=
EXTT9=
EXTT10=
EXTT11=
EXTT12=
EXTT13=
PLAYORDER=
